<svg width="18" height="23" viewBox="0 0 18 23" fill="none" xmlns="http://www.w3.org/2000/svg">
<path d="M10.7167 9.09216C10.7167 9.47876 11.0301 9.79216 11.4167 9.79216C11.8033 9.79216 12.1167 9.47876 12.1167 9.09216H10.7167ZM7.62891 1V0.3V1ZM3.14109 9.09216C3.14109 9.47876 3.45449 9.79216 3.84109 9.79216C4.22769 9.79216 4.54109 9.47876 4.54109 9.09216H3.14109ZM14.9771 6.71632C14.9771 7.10292 15.2905 7.41632 15.6771 7.41632C16.0637 7.41632 16.3771 7.10292 16.3771 6.71632H14.9771ZM15.6771 4.8052H16.3771L16.377 4.79591L15.6771 4.8052ZM11.6984 0.368484C11.3118 0.368543 10.9984 0.681992 10.9985 1.06859C10.9986 1.45519 11.312 1.76854 11.6986 1.76848L11.6984 0.368484ZM6.45521 13.035C6.45521 13.4216 6.76861 13.735 7.15521 13.735C7.54181 13.735 7.85521 13.4216 7.85521 13.035H6.45521ZM7.15521 6.71618H7.85521C7.85521 6.32958 7.54181 6.01618 7.15521 6.01618V6.71618ZM1 6.71618V6.01618C0.613401 6.01618 0.3 6.32958 0.3 6.71618H1ZM1 21.8761H0.3C0.3 22.2627 0.613401 22.5761 1 22.5761L1 21.8761ZM9.45578 6.01618C9.06918 6.01618 8.75578 6.32958 8.75578 6.71618C8.75578 7.10278 9.06918 7.41618 9.45578 7.41618V6.01618ZM14.7315 21.8761V22.5761H15.0215L15.2265 22.371L14.7315 21.8761ZM15.6785 20.9291L16.1735 20.4341L15.6785 19.9392L15.1835 20.4341L15.6785 20.9291ZM16.6254 21.8761L16.1305 22.371L16.3355 22.5761H16.6254V21.8761ZM17.0989 21.8761V22.5761H17.7989V21.8761H17.0989ZM17.0989 6.71618H17.7989V6.01618H17.0989V6.71618ZM7.62922 13.3535L8.12419 12.8585C7.99292 12.7273 7.81487 12.6535 7.62922 12.6535V13.3535ZM9.04965 14.7739H9.74965C9.74965 14.5883 9.6759 14.4102 9.54462 14.279L9.04965 14.7739ZM9.04965 18.5618V19.2618C9.43625 19.2618 9.74965 18.9484 9.74965 18.5618H9.04965ZM5.26183 18.5618H4.56183C4.56183 18.9484 4.87523 19.2618 5.26183 19.2618V18.5618ZM5.26183 14.7739L4.76685 14.279C4.63558 14.4102 4.56183 14.5883 4.56183 14.7739H5.26183ZM6.68226 13.3535V12.6535C6.49661 12.6535 6.31856 12.7273 6.18729 12.8585L6.68226 13.3535ZM2.89444 8.39226C2.50784 8.39226 2.19444 8.70566 2.19444 9.09226C2.19444 9.47886 2.50784 9.79226 2.89444 9.79226V8.39226ZM4.78835 9.79226C5.17495 9.79226 5.48835 9.47886 5.48835 9.09226C5.48835 8.70566 5.17495 8.39226 4.78835 8.39226V9.79226ZM10.4692 8.39226C10.0826 8.39226 9.76916 8.70566 9.76916 9.09226C9.76916 9.47886 10.0826 9.79226 10.4692 9.79226V8.39226ZM12.3631 9.79226C12.7497 9.79226 13.0631 9.47886 13.0631 9.09226C13.0631 8.70566 12.7497 8.39226 12.3631 8.39226V9.79226ZM12.1167 9.09216V4.78782H10.7167V9.09216H12.1167ZM12.1167 4.78782C12.1167 3.59758 11.6439 2.45608 10.8023 1.61445L9.81233 2.6044C10.3914 3.18348 10.7167 3.96888 10.7167 4.78782H12.1167ZM10.8023 1.61445C9.96065 0.772823 8.81916 0.3 7.62891 0.3V1.7C8.44785 1.7 9.23325 2.02532 9.81233 2.6044L10.8023 1.61445ZM7.62891 0.3C6.43867 0.3 5.29717 0.772823 4.45554 1.61445L5.44549 2.6044C6.02457 2.02532 6.80997 1.7 7.62891 1.7V0.3ZM4.45554 1.61445C3.61391 2.45608 3.14109 3.59758 3.14109 4.78782H4.54109C4.54109 3.96888 4.86642 3.18348 5.44549 2.6044L4.45554 1.61445ZM3.14109 4.78782V9.09216H4.54109V4.78782H3.14109ZM16.3771 6.71632V4.8052H14.9771V6.71632H16.3771ZM16.377 4.79591C16.368 4.11546 16.2052 3.44585 15.9009 2.83718L14.6487 3.46328C14.8586 3.88316 14.9709 4.34508 14.9771 4.81448L16.377 4.79591ZM15.9009 2.83718C15.5965 2.2285 15.1585 1.69653 14.6196 1.28104L13.7648 2.38981C14.1366 2.67643 14.4387 3.0434 14.6487 3.46328L15.9009 2.83718ZM14.6196 1.28104C14.0806 0.865553 13.4547 0.577311 12.7886 0.437877L12.5017 1.80817C12.9612 1.90436 13.393 2.1032 13.7648 2.38981L14.6196 1.28104ZM12.7886 0.437877C12.6582 0.410588 12.5936 0.39457 12.5471 0.383564C12.4974 0.371821 12.4061 0.34923 12.2834 0.351662C12.1336 0.35463 12.1733 0.36841 11.6984 0.368484L11.6986 1.76848C12.121 1.76842 12.3526 1.75057 12.3111 1.75139C12.2426 1.75275 12.1845 1.73645 12.2249 1.746C12.2685 1.75629 12.3507 1.77656 12.5017 1.80817L12.7886 0.437877ZM7.85521 13.035V6.71618H6.45521V13.035H7.85521ZM7.15521 6.01618H1V7.41618H7.15521V6.01618ZM0.3 6.71618V21.8761H1.7V6.71618H0.3ZM1 22.5761H14.2574V21.1761H1V22.5761ZM14.9574 21.8761V6.71618H13.5574V21.8761H14.9574ZM14.2574 6.01618H9.45578V7.41618H14.2574V6.01618ZM14.2574 22.5761H14.7315V21.1761H14.2574V22.5761ZM15.2265 22.371L16.1735 21.4241L15.1835 20.4341L14.2365 21.3811L15.2265 22.371ZM15.1835 21.4241L16.1305 22.371L17.1204 21.3811L16.1735 20.4341L15.1835 21.4241ZM16.6254 22.5761H17.0989V21.1761H16.6254V22.5761ZM17.7989 21.8761V6.71618H16.3989V21.8761H17.7989ZM17.0989 6.01618H14.2574V7.41618H17.0989V6.01618ZM7.13424 13.8485L8.55467 15.2689L9.54462 14.279L8.12419 12.8585L7.13424 13.8485ZM8.34965 14.7739V18.5618H9.74965V14.7739H8.34965ZM9.04965 17.8618H5.26183V19.2618H9.04965V17.8618ZM5.96183 18.5618V14.7739H4.56183V18.5618H5.96183ZM5.7568 15.2689L7.17724 13.8485L6.18729 12.8585L4.76685 14.279L5.7568 15.2689ZM6.68226 14.0535H7.62922V12.6535H6.68226V14.0535ZM2.89444 9.79226H4.78835V8.39226H2.89444V9.79226ZM10.4692 9.79226H12.3631V8.39226H10.4692V9.79226Z" fill="white"/>
</svg>
